<svg width="240" height="240" viewBox="0 0 240 240" fill="none" xmlns="http://www.w3.org/2000/svg">
<circle cx="120" cy="120" r="120" fill="#EB4646"/>
<path fill-rule="evenodd" clip-rule="evenodd" d="M128.905 62.7506C133.874 62.7506 138.536 63.4168 142.852 64.6523C138.626 54.8044 129.853 52 120.089 52C110.306 52 101.517 54.8154 97.3014 64.7104C101.586 63.4314 106.227 62.7506 111.18 62.7506H128.905ZM110.043 72.6358C86.445 72.6358 73 91.1999 73 114.1V137.624C73 139.914 74.913 141.725 77.2727 141.725H162.727C165.087 141.725 167 139.914 167 137.624V114.1C167 91.1999 151.365 72.6358 127.768 72.6358H110.043ZM119.967 114.306C128.226 114.306 134.921 107.61 134.921 99.3512C134.921 91.0921 128.226 84.3967 119.967 84.3967C111.708 84.3967 105.012 91.0921 105.012 99.3512C105.012 107.61 111.708 114.306 119.967 114.306ZM73 155.555C73 153.265 74.913 151.408 77.2727 151.408H162.727C165.087 151.408 167 153.265 167 155.555V180.433C167 185.013 163.174 188.726 158.455 188.726H81.5455C76.8259 188.726 73 185.013 73 180.433V155.555Z" fill="white"/>
</svg>
